<?xml version="1.0" encoding="UTF-8"?>
<svg id="Layer_1" data-name="Layer 1" xmlns="http://www.w3.org/2000/svg" viewBox="0 0 360 180">
  <defs>
    <style>
      .cls-1 {
        fill: #231f20;
        stroke-width: 0px;
      }
    </style>
  </defs>
  <path class="cls-1" d="m21.55,54.11h4.24l8.04,33.82h13.62l-10.27-37.17c5.02-3.68,8.26-10.71,8.26-22.66s-3.57-18.08-7.37-20.87c-4.35-3.24-9.71-3.24-13.51-3.24h-15.4v83.93h12.39v-33.82Zm0-38.84h3.68c.78,0,3.01,0,4.46,1.45,1.67,1.67,2.79,5.47,2.79,11.94s-1.12,11.05-3.01,12.72c-1.34,1.23-3.01,1.23-4.24,1.23h-3.68V15.27Z"/>
  <path class="cls-1" d="m85.41,4h-11.72v65.41c0,4.58-.78,8.26-5.58,8.26s-5.69-3.68-5.69-8.26V4h-13.06v63.29c0,7.14.78,11.94,3.24,15.4,2.57,3.57,6.92,6.36,14.62,6.36s12.61-3.13,14.96-6.47c2.68-3.79,3.24-9.15,3.24-15.51V4Z"/>
  <polygon class="cls-1" points="100.37 31.01 116.89 87.93 129.5 87.93 129.5 4 118.45 4 118.45 59.47 103.05 4 89.32 4 89.32 87.93 100.37 87.93 100.37 31.01"/>
  <polygon class="cls-1" points="164.66 54.11 177.83 54.11 177.83 42.28 164.66 42.28 164.66 15.83 178.94 15.83 178.94 4 151.6 4 151.6 87.93 164.66 87.93 164.66 54.11"/>
  <path class="cls-1" d="m201.94,88.83c6.81,0,12.61-2.34,15.96-8.15,3.79-6.59,4.24-18.08,4.24-34.71,0-18.53-.56-28.35-4.24-34.82-3.24-5.58-8.71-8.04-15.74-8.04s-12.72,2.34-16.07,8.15c-3.68,6.47-4.13,16.18-4.13,35.16,0,16.41.34,27.79,4.13,34.38,3.35,5.92,9.38,8.04,15.85,8.04Zm-4.58-70.87c.89-2.23,2.46-3.57,4.69-3.57s3.68,1.34,4.58,3.57c1.56,3.79,1.79,11.61,1.79,28.01s-.22,24.22-1.79,28.01c-.89,2.23-2.34,3.57-4.58,3.57s-3.8-1.34-4.69-3.57c-1.45-3.68-1.68-9.71-1.68-28.01s.22-24.33,1.68-28.01Z"/>
  <path class="cls-1" d="m254.09,50.77c5.02-3.68,8.26-10.71,8.26-22.66s-3.57-18.08-7.37-20.87c-4.35-3.24-9.71-3.24-13.51-3.24h-15.4v83.93h12.39v-33.82h4.24l8.04,33.82h13.62l-10.27-37.17Zm-7.7-9.38c-1.34,1.23-3.01,1.23-4.24,1.23h-3.68V15.27h3.68c.78,0,3.01,0,4.46,1.45,1.67,1.67,2.79,5.47,2.79,11.94s-1.12,11.05-3.01,12.72Z"/>
  <path class="cls-1" d="m19.54,111.93c0-6.58,2.79-9.04,7.37-9.04,2.9,0,6.25.89,6.25.89h.67v-11.27s-4.24-.89-8.71-.89c-12.5,0-18.75,7.25-18.75,21.99,0,11.05,3.57,16.07,7.81,21.65,4.47,5.92,8.71,11.16,8.71,19.76,0,7.14-3.01,10.16-8.26,10.16-3.35,0-6.81-1.23-6.81-1.23h-.67v11.38s3.91,1.12,9.04,1.12c12.72,0,19.87-7.03,19.87-23.44,0-10.38-2.9-16.63-7.7-22.99-4.47-5.92-8.82-9.82-8.82-18.08Z"/>
  <path class="cls-1" d="m59.39,91.17c-6.92,0-12.72,2.34-16.07,8.15-3.68,6.47-4.13,16.18-4.13,35.16,0,16.41.33,27.79,4.13,34.38,3.35,5.92,9.38,8.04,15.85,8.04,6.81,0,12.61-2.34,15.96-8.15,3.79-6.59,4.24-18.08,4.24-34.71,0-18.53-.56-28.35-4.24-34.82-3.24-5.58-8.71-8.04-15.74-8.04Zm4.46,70.87c-.89,2.23-2.34,3.57-4.58,3.57s-3.8-1.34-4.69-3.57c-1.45-3.68-1.68-9.71-1.68-28.01s.22-24.33,1.68-28.01c.89-2.23,2.46-3.57,4.69-3.57s3.68,1.34,4.58,3.57c1.56,3.79,1.79,11.61,1.79,28.01s-.22,24.22-1.79,28.01Z"/>
  <polygon class="cls-1" points="111.08 153.79 101.15 92.07 83.4 92.07 83.4 176 94.34 176 94.34 107.8 104.39 174.1 115.99 174.1 126.04 107.8 126.04 176 138.54 176 138.54 92.07 120.79 92.07 111.08 153.79"/>
  <polygon class="cls-1" points="156.29 138.5 169.01 138.5 169.01 126.78 156.29 126.78 156.29 103.67 171.69 103.67 171.69 92.07 143.23 92.07 143.23 176 172.14 176 172.14 164.28 156.29 164.28 156.29 138.5"/>
  <polygon class="cls-1" points="173.92 103.9 184.97 103.9 184.97 176 198.03 176 198.03 103.9 209.19 103.9 209.19 92.07 173.92 92.07 173.92 103.9"/>
  <polygon class="cls-1" points="236.32 126.78 224.37 126.78 224.37 92.07 211.32 92.07 211.32 176 224.37 176 224.37 138.5 236.32 138.5 236.32 176 249.38 176 249.38 92.07 236.32 92.07 236.32 126.78"/>
  <rect class="cls-1" x="254.95" y="92.07" width="13.06" height="83.93"/>
  <polygon class="cls-1" points="302.17 147.54 286.77 92.07 273.04 92.07 273.04 176 284.09 176 284.09 119.08 300.61 176 313.22 176 313.22 92.07 302.17 92.07 302.17 147.54"/>
  <path class="cls-1" d="m336.22,130.68v11.5h6.36v23.33s-1.68.22-2.9.22c-8.15,0-9.15-9.82-9.15-31.25,0-23.66,1.23-31.81,12.5-31.81,4.35,0,8.93,1.23,8.93,1.23h.56v-11.38s-4.69-1.12-10.38-1.12c-22.43,0-24.67,17.3-24.67,44.09,0,24.67,1.9,41.07,22.66,41.07,6.59,0,13.51-1.67,13.51-1.67v-44.2h-17.41Z"/>
</svg>